<?xml version="1.0" encoding="utf-8"?>
<!-- Generator: Adobe Illustrator 19.0.1, SVG Export Plug-In . SVG Version: 6.00 Build 0)  -->
<svg version="1.1" id="logo" xmlns="http://www.w3.org/2000/svg" xmlns:xlink="http://www.w3.org/1999/xlink" x="0px" y="0px"
	 viewBox="-725 571.4 275.5 154.6" style="enable-background:new -725 571.4 275.5 154.6;" xml:space="preserve">
<style type="text/css">
	.st0{fill:#FFFFFF;}
</style>
<g>
	<g>
		<g id="Conts_1_">
			<g>
				<path class="st0" d="M-584.2,575.9c-0.4-0.1-1-0.4-1.4-0.3h-0.1c0.1,0,0.1,0.1,0.3,0.1c-0.3,0.1-0.4,0-0.5-0.1
					c0.1,0.1,0.1,0.1,0,0.4c0,0,0,0,0,0.1c0.5,0.1,1,0.4,1.8,0.3l0,0c-0.1-0.1-0.5-0.3-0.8-0.4c0,0,0,0-0.1,0l0,0
					c0.5,0.1,0.9,0.3,1.3,0.5l0.1-0.1c-0.1,0.3-0.3,0.3-0.3,0.5c-0.8-0.1-1.4-0.4-1.8,0.5c0.1,0.1,0.1,0.1,0.3,0.3
					c-0.1,0-0.1,0-0.3,0.1c0,0.1,0,0.1,0,0.3c0.4,0.3,0.5,0.5,0.9,0.6c0,0.1,0,0.4,0.1,0.5s0.1,0.1,0.3,0c0.1,0.1,0,0.3,0.1,0.4
					c0.3,0.3,1,0.8,1.3,1c0,0.1,0,0.3,0.1,0.4c0.3,0.3,0.6,0.3,0.9,0.5c0.1,0,0,0,0,0.1c0.6,0.3,1.5,0.3,2,0.5c0.1,0.1,0,0,0,0.1
					c0.5,0.1,1,0.3,1.5,0.4h0.1c0-0.1,0-0.1,0-0.3c0.3-0.1,0.4-0.5,0.6-0.8c-0.1-0.3-0.1-0.3-0.1-0.5c0.4,0,0.6-0.3,0.9-0.4
					c0-0.3,0-0.3-0.3-0.4c0.1-0.1,0.1,0,0.3,0l0.1-0.1c-0.1-0.1-0.3-0.3-0.4-0.3c0,0,0,0-0.1,0l0,0c0.3,0,0.4,0.1,0.6,0
					c0,0,0,0,0.1,0c0-0.1-0.1-0.1-0.1-0.3l0,0c0.3,0.1,0.5,0.1,0.9,0.1c0-0.1,0-0.3,0.1-0.3s0.1,0,0.3,0c-0.1,0.1-0.1,0.3-0.3,0.3
					c0,0,0,0,0,0.1c0.9,0.3,1.5-0.1,2.4-0.3c0-0.1,0-0.1,0-0.3c1-0.3,2.6,0.4,3.6,0.3c0.3,0-3.7-2.6-7.9-3.6
					C-580.5,575.1-584.3,575.7-584.2,575.9z M-576.9,579.8C-577,579.8-576.9,579.8-576.9,579.8S-576.9,579.7-576.9,579.8z
					 M-596.4,577.8c0.5,0.1,1.1,0.1,1.7,0.4c0.5,0.3,0.6,0.6,1.3,0.6c-0.1,0.1-0.3,0-0.4,0c0.1,0.3,0.3,0.4,0.6,0.4
					c0,0-0.1,0-0.1,0.1c0.1,0.1,0.3,0.3,0.5,0.4h0.1c0-0.1,0-0.1-0.1-0.1l0,0c1.1,0.4,2.2,1.1,3.4,1.4c0-0.1,0-0.1,0.1-0.1l0,0
					c-0.4-0.5-1.3-1-1.9-1.3v-0.1c0.3,0.1,0.5,0.3,0.8,0.4v-0.2c0.6,0.4,1.5,0.9,2.2,1.3c0.1,0,0.1,0,0.3,0c0,0,0,0,0.1,0l0,0
					c-0.3-0.1-0.4-0.1-0.5-0.4c0.1,0,0.3,0.1,0.3,0.1l0,0c0-0.1,0-0.1-0.1-0.3c0,0,0,0,0-0.1c0.1,0.1,0.1,0,0.1,0.1
					c0.3,0,0.1,0,0.3-0.1c0,0.1,0.1,0.1,0.1,0.3l0,0c0,0,0-0.1-0.1-0.1c0.1,0,0.1,0,0.3,0c0,0,0,0,0-0.1c-0.3-0.1-0.4-0.3-0.8-0.4
					c0,0,0,0,0-0.1c0.1,0,0.1,0,0.3,0l0,0c-0.3-0.1-0.9-0.8-1.4-0.6c0-0.3-0.1-0.5-0.4-0.6c0.1,0,0.3,0,0.3,0s0,0,0-0.1l-0.1-0.1
					c0.5,0,0.9,0.5,1.4,0.5c-0.1,0.5,0.9,0.6,1.1,0.9c0.3,0,0.3-0.1,0.4-0.1c0,0-0.1,0-0.1-0.1s0-0.1,0.1-0.1c0.3,0.1,0.4,0.1,0.6,0
					v0.1c0.1,0,0.1,0,0.3,0l-0.1-0.1c0.1-0.1,0,0,0.1,0h0.1c0-0.1-0.1-0.1-0.1-0.3c0.4,0.1,0.5,0.1,0.8,0c-0.1-0.4-0.5-0.5-0.9-0.4
					c0-0.1,0,0,0.1-0.1c-0.1,0-0.3,0-0.4,0s-0.3-0.3-0.6-0.3c0.1-0.1,0,0,0.1-0.1c-0.1-0.1-0.5-0.4-0.8-0.3c0,0,0,0-0.1-0.1
					c0,0,0.1,0,0.1-0.1c-0.4-0.1-0.5-0.3-0.8,0c-0.3-0.1-0.3-0.3-0.6-0.4c0,0,0-0.1,0.1-0.1c-0.3-0.1-0.6-0.1-0.9-0.3l0,0
					c0.1,0,0.1,0,0.3,0c0-0.1,0-0.1,0-0.3c0.3,0.1,0.5,0.1,0.9,0.3c0,0,0,0,0.1-0.1c-0.1-0.1-0.4-0.3-0.6-0.3v-0.1
					c0.1,0,0.3,0.1,0.4,0.1l0,0v-0.1c-0.4-0.3-0.4-0.3-1-0.3c0.1-0.1,0.1-0.1,0.4-0.1l0,0c-0.4-0.3-1-0.1-1.4-0.4l-0.4-0.4
					c-0.3-0.1-1.3-0.4-1.4-0.4c0,0,0-0.1,0.1-0.1c-0.4-0.1-0.8-0.3-1.1-0.5c0.1,0,0.3,0,0.3,0l0,0c-0.1-0.3-1.9,0.4-2.3,0.9
					c-0.1,0,0.8,0.6,0.5,0.6c0,0,0,0.1-0.1,0.1c0,0,0,0-0.1,0c0.1,0.1,0.9,0.1,1.1,0.1c0,0,0,0,0,0.1c-0.1,0.1-0.3,0-0.4,0
					c0,0,0,0-0.1,0c0.1,0.3,0.4,0.3,0.6,0.1l0.1,0.3c-0.1,0-0.3-0.1-0.5-0.1c0.1,0.3,0.5,0.4,0.9,0.4v-0.1c-0.1,0-0.3,0-0.4-0.1
					c0-0.1,0-0.1,0-0.3c0.3,0.1,0.4,0.3,0.6,0.3c0,0.3,0.1,0.4,0.1,0.6c-0.6,0.1-1.3,0.1-1.8,0.3c0,0,0,0,0,0.1
					c0.1,0.1,0.3,0.3,0.4,0.4l0,0c-0.4-0.1-0.9,0-1.3-0.1c-0.9-0.1-1.5-0.6-2.3-0.1v0.1C-597.6,577.9-596.9,577.8-596.4,577.8z
					 M-591.1,577.7C-591.2,577.5-591.2,577.7-591.1,577.7C-591.2,577.5-591.2,577.5-591.1,577.7z M-593.5,576
					C-593.4,576-593.4,576-593.5,576C-593.5,576-593.4,576-593.5,576z M-592.3,577.3c0.1,0,0.1-0.1,0.3-0.1c0.4,0.1,0.3,0.3,0.8,0.3
					c0,0.1,0.1,0-0.1,0.1l0.1,0.1c-0.5-0.1-0.6-0.1-1.1-0.1C-592.3,577.4-592.3,577.4-592.3,577.3z M-593,577.9
					c0.3,0.1,0.5,0.1,0.6,0.4c0,0,0,0.1,0.1,0.1c-0.3-0.1-0.6-0.1-1-0.3c0,0,0,0,0-0.1C-593.2,578-593,578-593,577.9
					C-593,578-593,578-593,577.9z M-621.7,605c0.3,0.3,1.1-0.3,1.5-0.3c0.1,0.3,0.5,1.1,0.8,1.1c0.4,0.8-0.5,1.1-0.5,1.7
					c0,0,0,0,0.1,0c0.1-0.1,0.1-0.1,0.1-0.3c0,0,0,0,0.1,0c0.1,0.3,0,0.1,0.1,0.1c-0.1,0.1-0.3,0.3-0.4,0.4c-0.1,0.1,0,0.5,0.1,0.9
					c0.1,0,0.1,0,0.3,0.1c0,0,0-0.1,0.1-0.1c0,0,0,0,0,0.1c-0.1,0.3-0.1,0.3-0.3,0.5c0.1,0,0,0,0.1,0c0.1,0.1,0.1,0.3,0.1,0.4
					c0,0.6,0.6,0.6,0.4,1.3c0.3,0.3,0.9,0.1,1,0.1c0-0.5,0.6-1,0.8-1.4c0.3-0.6,0-1.4,0-2.2c0.1,0,0.1,0,0.3-0.1
					c-0.1-0.5-0.1-1.1-0.3-1.7c0.1-2,1.9-2.6,3.6-3.1c0.8-0.3,0.5-0.9,1.9-0.6c0.4-0.6,1.5-0.5,2.3-0.8c0,0,0,0,0-0.1
					c-0.1-0.1-0.1,0-0.3-0.3l0,0c0.1-0.1,0.8-0.3,1-0.3c0.1-0.1,0.1-0.3,0.3-0.3c-0.1-0.1-0.4-0.3-0.6-0.3l0,0
					c0.3,0,0.5,0.1,0.8,0.1c0,0.1,0,0.3,0,0.3s0.1-0.8,0.1-1.3c-0.1,0-0.1,0-0.3-0.1c-0.1-0.1,0,0,0-0.1s0.3-0.5,0.4-0.8
					c-0.1-0.1,0-0.8,0-0.9c0.1-0.1,0.4-0.4,0.5-0.5c-0.4,0.6-0.3,0.6-0.4,1.4c0.1,0,0.3,0.1,0.4,0.1c-0.3,0.3-0.5,0.3-0.6,0.5
					c0,0,0,0,0,0.1c0.1,0,0,0,0.3,0.1c0.3-0.5,1.1-0.8,1.5-1.4c-0.3-0.3-0.1-0.4-0.3-0.8c0.1,0.1,0.3,0.3,0.5,0.4l-0.1,0.1l0,0
					c0.6,0.1,1.4-0.6,1.7-1.1c0-0.1,0-0.1-0.1-0.1c0,0,0,0,0-0.1c0.6-0.1,1.7,0.1,2.4,0c-0.1-0.1-0.1-0.1-0.3-0.3
					c-0.6,0.1-1.1-0.1-1.7,0c0.6-0.5,2.8,0.3,3.7-0.1c0.1,0.3,0.4,0.3,0.8,0.3c0-0.1,0.1-0.1,0.1-0.3c0,0-0.1-0.1-0.1-0.3
					c-0.1,0.3,0,0.3-0.3,0.3c-0.1,0-0.3,0-0.3,0c0-0.3,0-0.5-0.4-0.6c0,0,0,0,0-0.1c0.1,0,0.4-0.1,0.5-0.1c0-0.1-0.1-0.1-0.1-0.3
					c0.3-0.4,0.8-0.5,1-0.8c0.6,0.1,1,0.1,1.7-0.3c0.1,0.1,0.1,0.1,0.1,0.3c0.8,0,1.5,0,2.3-0.3c0-0.1-0.1-0.1-0.1-0.3
					c0.1,0,0.5,0.1,0.6,0.1c0.6,0.1,1.8,0,2.2-0.1c0,0,0,0,0.1,0.1c-0.1,0-0.4,0.1-0.5,0.1c0,0,0,0,0,0.1c0.3,0,0.4,0.1,0.6,0.1
					c-0.8,0.1-1.5,0.3-2.2,0.4c0,0,0,0,0,0.1c0.1,0,0.1,0,0.3-0.1c0,0-0.1,0-0.1,0.1c-0.1,0.3-0.3,0.3-0.3,0.6c0.1,0,0.1,0,0.3,0
					c0.1,0.3,0,0.4,0.4,0.4c0.5,0,1-0.4,1.7-0.4c0.1-0.1,0-0.1,0.3-0.3c0,0,0,0.1,0.1,0.1l0.1-0.1c0,0.3,0.1,0.3,0.4,0.3
					c0.4-0.4,2.4,0.1,3.1-0.1c0,0,0,0,0.1,0c-0.1-0.1-0.3-0.1-0.5-0.1c0.1-0.1,0.1,0,0.3-0.1c0.5,0.1,1,0,1.7,0.1V594
					c0-0.3-0.3-0.4-0.6-0.4l0,0c0.1-0.1,0.3-0.3,0.3-0.4c-0.1-0.1-0.1,0-0.1-0.3c-0.1,0-0.1,0-0.3,0c-0.4,0.3-1.3,0.4-1.3,0.9
					c-0.3,0-0.4,0-0.4-0.3c-0.9,0.1-1.3-0.4-2-0.5c0-0.1-0.1-0.1-0.1-0.3h0.1c0,0,0,0,0-0.1c-0.3-0.1-0.5-0.3-0.6-0.3
					c-0.1-0.1-0.3-0.4-0.4-0.6c0.1,0,0.1-0.1,0.3-0.1c-0.1-0.1-0.3-0.1-0.4-0.1c0,0,0,0,0-0.1c0.4,0,0.6-0.3,1-0.4
					c0,0,0-0.1,0.1-0.1l0,0c-0.4,0.1-0.8,0-1.3,0c-0.1-0.3-0.3-0.4-0.6-0.4c0,0,0,0,0-0.1c0.5,0,0.8,0.3,1.1,0.4
					c0.4,0,0.8-0.1,1.1-0.1v-0.1c0.1-0.1,0-0.1,0-0.3h0.1l0,0c-0.9-1.3-4.3-0.8-5.7-0.5c-0.6,0.1-1,0.6-1.8,0.6
					c0.4-0.4,2.4-1.1,3.1-1.3c0,0,1.3,0.1,1.4,0.1c0.1-0.1,0.3-0.3,0.4-0.4c0.5-0.3,1.3-0.1,2,0c0.9,0.3,1.8,0.4,2.7,0.6
					c0.5,0.1,2.2,0.9,2.8,0.8c0.4-0.1,0.9-0.3,1.3-0.4c0.9-0.4,2.8,0.6,3.4-0.1c0-0.1,0,0,0-0.3c0,0,0,0,0.1,0c0.1-0.1,0-0.8,0.1-1
					c-0.3-0.1-0.4-0.1-0.6-0.3c0-0.1,0,0,0-0.1c-0.4,0-0.4-0.1-0.6-0.1c-0.1-0.5-0.5-0.6-1-0.6l0,0c0.4,0,0.6,0.1,1,0.1
					c-0.1-0.3-0.6-0.3-0.6-0.5c-0.3-0.1-0.6,0-0.9-0.1c-0.1-0.1-0.1-0.1-0.1-0.3c-0.1-0.1-0.6-0.1-0.8-0.3c-0.1-0.1-0.3-0.3-0.5-0.4
					c0-0.1-0.1-0.1,0-0.1c0-0.1-0.8-0.6-1-0.6c0.1-0.1,0,0,0.3-0.1c0-0.1,0-0.3,0-0.6c-0.1,0-0.1-0.1-0.3-0.1c0,0,0.1-0.3,0.1-0.5
					c-0.4-0.1-0.8-0.3-0.6-0.6c-0.1,0-0.1,0-0.3,0c-0.3-0.4-1.1-1.5-1.1-1.9c-0.9,0.3-2.2,1.8-3.4,0.8c-0.3,0-0.4-0.3-0.8-0.4
					c0-0.1,0-0.3,0-0.4c-0.1,0-0.1,0-0.3,0c0.1-0.3,0.3-0.4,0.3-0.8c0.1,0,0.3-0.1,0.4-0.1l-0.1-0.1c-0.1,0-0.3,0.1-0.4,0.1
					c-0.3-0.3-0.8-0.4-1.3-0.5c0,0,0,0,0-0.1l0,0c0.1,0,0,0,0.3-0.1l0,0c-0.3-0.3-0.9-0.8-1.3-0.9c-0.4,0-0.6,0-1,0
					c-0.8-0.3-1.5-0.6-2.4-0.5c-0.1,0.1-0.1,0.1-0.3,0.3v0.1c0.1,0.1,0,0.1,0.1,0.1c-0.1,0.3-0.4,0.3-0.8,0.4
					c0.3,0.4,0.1,0.4,0.3,0.6c-0.1,0.1-1,0.5-1.4,0.5c0,0.1-0.1,0.1-0.1,0.3c0.5,0.1,0.9,0.5,0.9,1.1c-0.4,0.9-1.4,1-2.4,1.3
					c-0.4,0-0.8,0-1.1,0h-0.1c0,0.1,0,0.4,0.3,0.5c-0.3,0.4-0.6,0.9-0.4,1.3c-0.3,0.1-0.5,0.4-0.8,0.4c0,0.1,0,0.3,0,0.4h-0.1
					c0-0.1-0.1-0.1-0.1-0.3c-0.4,0-0.5,0.1-0.8,0.3c-0.1,0-0.3-0.1-0.4-0.1c-0.1-0.6-0.5-1-0.8-1.5c0.3-0.1,0.4-0.4,0.5-0.5
					c0-0.1,0-0.3,0-0.3c0.3-0.3,0.5-0.4,0.6-0.6c-0.8-0.1-3.1-0.8-3.6-1.3c-0.1-0.1-0.3-0.5-0.4-0.6c-0.4-0.1-0.8-0.4-1-0.5
					c-0.4,0-0.8,0-1.1,0c0,0,0,0-0.1,0c0.3-0.3,0.5-0.8,0.6-1c-0.3-0.1-0.5-0.1-0.8-0.1V579c0.8-0.9,3.2-1.8,4.2-1.7l-0.1-0.1
					c0.4,0,0.8,0.1,1.1,0c0.1-0.3,0.1-0.3,0-0.4c0,0,0,0-0.1,0l0,0c0.6,0.1,2.7,0.1,3.6-0.3c0.1-0.1,0,0,0-0.1
					c0.4-0.1,0.8-0.1,1.1-0.3h0.1l0,0c-0.1-0.1-0.1-0.1-0.3-0.1c0,0,0,0,0-0.1c0.3,0,0.5,0,0.8,0.1c0,0.3,0.5,0.5,0.8,0.6
					c0.1-0.1,0,0,0-0.1l0,0c-0.1,0,0,0-0.1,0c-0.1-0.1-0.1-0.1-0.3-0.3l0,0c0.1,0,0.3,0.1,0.4,0.1c0-0.1,0-0.3,0-0.4
					c0.1,0.1,0.3,0.3,0.5,0.4v-0.1c0.6-0.1,1.3-0.1,1.8-0.3c-0.1-0.1-0.3-0.3-0.3-0.4c0,0-3.6-2-7.8-1.9c-2.7,0-12.5,3.4-20.3,7.3
					c-5.9,2.9-10.5,6.8-10.7,7c-2.4,2-4.6,4.6-5.9,7.7c-0.1,0.1-0.3,0.3-0.4,0.5c-0.1,0.3-0.8,1.9-0.8,2c0.1,0,0.3,0,0.4,0
					c-0.1,0.5,0.3,0.5,0.1,1.1c-0.3,0.9-0.9,2-1.1,3.1c0,0.3-0.3,0.8-0.3,1c0.1,0.4,0.3,0.8,0.1,1.3c-0.1,0.3-0.3,0.5-0.4,0.8
					c-0.1,0-0.3,0-0.4,0l0,0c0,0.5,0.1,0.9,0.1,1.3c0.1,0,0.1,0,0.1-0.1c0.3,0.8,0.1,1.7-0.4,2.3c0.1,0.8,0.6,1.1,0.4,2.3l0,0
					c0,0,0,0,0.1,0c0.6-0.8,0.5-0.6,0.6-1.5c0-0.1,0-0.1-0.1-0.3c0,0.1-0.1,0.1-0.1,0.3l0,0c-0.1-0.6,0.5-2,0.6-2.7
					c0.1-0.4-0.1-1.1,0-1.7c0.3-1.1,0.4-3.6,1.3-4.3c0,0.1,0.1,0.1,0.1,0.3l0.1-0.1c0.3,0.6-0.6,1.7-0.5,2.6
					c-0.3,0.1-0.3,0.3-0.4,0.5l0.1,0.1c0.1-0.1,0.1-0.1,0.3-0.3c0,0.3-0.1,0.9,0.1,1.1c0,0.1,0,0,0.1,0c0,0,0,0,0.1,0.1
					c-0.1,0.3-0.3,0.4-0.3,0.8c0.1,0.1,0,0.1,0.1,0.1c0,0.1-0.1,0.3-0.1,0.5h0.1c0,0.5-0.3,0.6-0.4,1c0,0.5,0.3,0.6,0.5,0.9
					c-0.1,0.1-0.1,0.3-0.1,0.5c0.4,0.5,0.9,4,0.1,4.3c-0.1,0.3-0.1,0.3-0.1,0.4c-0.1,0.1-0.1,0.1-0.4,0.3c-0.5,1.3,0.6,1.7,0.6,2.7
					c0.1,0,0.1,0.1,0.3,0.1c0,0,4.3-0.1,6.9-0.3c0.1,0-0.1-0.1-0.3-0.1c-0.1-0.1-0.6-2.7-0.5-3.1c0.1-0.1,0.1-0.3,0.3-0.4
					c-0.4-0.8,0.3-1.7,0.5-2.4c0.3-0.6,0.5-1.3,0.8-1.9c0.3-0.3,0.8-0.3,0.9-0.8c0.1-0.4-0.1-0.6,0.1-1.1c0.1-0.4,0.6-0.5,0.6-1.1
					c0.3,0,0.6-0.1,0.8-0.4c0-0.1,0.1-0.1,0.1-0.3c0,0.1,0,0.1,0,0.3c0.1-0.1,0.1-0.1,0.3-0.1c0-0.1,0.1-0.1,0.1-0.3l-0.1-0.1
					c0.6,0.1,1.1-0.1,1.8-0.5c0.4,0.1,0.3-0.1,0.3-0.4c0.1-0.1,0.1-0.1,0.3-0.3l0,0l-0.1,0.1c0,0,0.1,0,0.1,0.1
					c0.1,0.1,0.8-0.3,1.1-0.1c0.4,0,1.1,0.4,1.4,0.5h0.1v-0.1c-0.1,0-0.1,0-0.3,0V604c0.1,0,0.3-0.1,0.3-0.1c0,0.1,0.3,0.4,0.4,0.5
					c0,0,0,0-0.1,0c0,0,0,0.1-0.1,0.1c0.1,0.1,0.3,0.1,0.4,0.3c0.1-0.1,0.4-0.1,0.5-0.3c0,0.1,0,0.1,0.1,0.3
					c0.3-0.1,0.3-0.3,0.5-0.4c0.1,0.1,0.3,0.4,0.5,0.5c0,0,0.1,0,0.1,0.1l0,0c0-0.1,0.1-0.1,0.1-0.3c-0.1-0.1-0.3-0.3-0.4-0.4
					c0,0,0,0-0.1-0.1c0.1-0.1,0.3-0.1,0.4-0.3c0.1-0.1,0-0.1,0-0.4c-0.1,0-0.3,0.1-0.3,0.1l0,0c0,0,0-0.1-0.1-0.1
					c0.6-0.4,1.3-0.3,1.9-0.1c0-0.1,0.1-0.1,0.1-0.3c0,0,0.1,0,0.1-0.1c0,0.1,0,0.4,0,0.5c0.9,0.1,1.5-0.3,2.2,0.4
					C-621.8,604.6-621.8,605-621.7,605z M-602.9,595.9L-602.9,595.9c0.1,0,0.1,0,0.3,0C-602.8,595.9-602.9,595.9-602.9,595.9
					L-602.9,595.9z M-588.4,594.1C-588.4,594.1-588.3,594.1-588.4,594.1C-588.3,594.2-588.3,594.2-588.4,594.1
					C-588.4,594.2-588.4,594.1-588.4,594.1z M-588.6,594.2c0.1,0,0.1,0,0.3,0v0.1l0,0c-0.1,0-0.3,0-0.5,0
					C-588.8,594.4-588.6,594.2-588.6,594.2z M-591.7,594c-0.3,0-0.5,0-0.8,0.1c0,0-0.1,0-0.1-0.1v-0.1
					C-592.2,593.9-592,594-591.7,594z M-583.3,588.5L-583.3,588.5L-583.3,588.5C-583.2,588.5-583.3,588.5-583.3,588.5
					C-583.3,588.6-583.3,588.6-583.3,588.5z M-586.1,587.9c0.1,0,0.1,0,0.3-0.1c0.4,0,0.8,0.1,1.1,0.1
					C-585.2,587.9-585.7,588-586.1,587.9C-586.1,587.9-586.1,588.1-586.1,587.9z M-601.4,595.5
					C-601.4,595.6-601.4,595.5-601.4,595.5C-601.4,595.6-601.4,595.5-601.4,595.5z M-644,600.2C-644,600.1-644,600.1-644,600.2
					C-644,600.1-643.9,600.1-644,600.2z M-643.7,599.9L-643.7,599.9c0-0.4,0.3-0.6,0.4-1.1C-643.1,599.2-643.5,599.6-643.7,599.9z
					 M-637.2,613.1L-637.2,613.1L-637.2,613.1c-0.1-0.1-0.1-0.3-0.1-0.3S-637.4,613-637.2,613.1z M-630.1,603.8
					C-630.1,603.8-630.1,603.7-630.1,603.8C-630,603.8-630,603.7-630.1,603.8z M-626.1,603.9c-0.3,0-0.4,0-0.6,0
					c0.1-0.1,0.1-0.3,0.3-0.4C-626.3,603.7-626.1,603.8-626.1,603.9L-626.1,603.9z M-622.9,661.1c0.5,0.8,0.9,1.8,1.5,2.4
					c1.3,1.3,3.3,1.9,4.1,3.6c0.4,0.4,0.8,0.8,1.1,1.1c0,0.1,0,0.4-0.1,0.5c0.1,0.5,0.3,1.3,0.3,1.8c0,0.3-0.1,0.5-0.1,0.9
					c0,0.1,0.1,0.4,0.1,0.5c-0.1,0.5-0.3,1-0.4,1.7c-0.1,0,0,0-0.3,0c0,0.1,0,0.4,0,0.5c0.1,0,0.1,0,0.3,0c0,0.4-0.1,0.6-0.1,1
					s0.1,0.6,0.1,1c0,0.1-0.3,0.3-0.3,0.4s0,0.3,0.1,0.4c0,0.8-0.3,1.3-0.4,1.7c-0.3,0.4,0,0.9-0.4,1.1c0.1,0.5,0.3,0.9,0.3,1.4
					c-0.1,0-0.1,0-0.3,0c-0.1,1.3,0.5,2,0.1,2.9c0,0,0.3,0.4,0.1,0.5c-0.3,0.9-0.8,1.7-0.8,2.7c0,0-0.1,0-0.1-0.1c0,0.1,0,0.4,0,0.5
					c-0.1,0-0.3-0.1-0.4-0.1l0,0c0.1,0.8,0.4,1.5,0.8,2c0,0.8-0.5,1,0.1,2v0.1c-0.1,0-0.1-0.1-0.3-0.1c-0.1,0.4,0.1,0.8,0,1.3
					c0.1,0.1,0.3,0.3,0.5,0.3h0.1c0.1-0.4,0-0.9-0.1-1.1c0,0,0,0,0.1-0.1c0.1,0,0.1,0.1,0.3,0.1l0,0c0-0.1,0.1-0.1-0.1-0.1
					c0,0,0-0.1,0.1-0.1c0.1,0.1,0.1,0.1,0.3,0.3l-0.1,0.1c0.1,0.1,0.3,0.5,0,0.6c0.1,0,0.1,0.1,0.3,0.1c-0.1,0.6,0,1.1,0,1.8h-0.1
					c0-0.3-0.3-0.8-0.1-0.9c-0.1-0.3-0.3-0.4-0.5-0.4c-0.1,0.1-0.3,0.4-0.3,0.8c0.1,0.1,0.3,0.3,0.3,0.3c0,0.1,0,0.4,0,0.5h-0.3l0,0
					c0,0.1,0.1,0.1,0.1,0.3c-0.1,0.1-0.3,0.1-0.3,0.3v0.1c0.1,0,0.1,0.1,0.3,0.1l0.1-0.1c0.1,0.1,0.5,0.3,0.6,0.4h-0.1
					c0,0.1,0,0.1,0.1,0.1c0,0.1-0.1,0.3-0.1,0.4c-0.1-0.1-0.1-0.1-0.4-0.1l0,0l0.1,0.1c0,0-0.1,0.1-0.3,0.1c0.3,0.4,0.3,1,0.5,1.3
					c0.1,0.1,0.4,0.1,0.5,0.3c-0.1,0-0.3,0-0.3-0.1l0,0c0,0.1,0.1,0.3,0.1,0.5c0.1,0,0.1,0,0.3,0.1c0-0.1,0.1-0.3,0.1-0.4
					c0,0.1,0.1,0.1,0.1,0.3h-0.1l0,0c0.1,0.3,0.1,0.4,0.3,0.6c0.1,0,0.3-0.1,0.5-0.1c0.1,0.1,0.1,0.1,0.3,0.1c0,0,0,0.1-0.1,0.1
					s-0.3-0.1-0.4-0.1c0,0,0,0,0,0.1c0.1,0.3,0.4,0.4,0.6,0.5c0,0,0-0.1-0.1-0.1c0.3,0.1,0.4,0.4,0.6,0.5l0,0
					c-0.3-0.1-0.4-0.1-0.6-0.3c0.3,0.4,0.5,0.4,0.8,0.5c0,0.1,0,0,0,0.1c0.3,0.3,1.5,1.1,1.9,1c0,0.1,0,0,0,0.1
					c0.4,0.4,1.5,0.8,2.2,0.9l0,0c-0.1-0.1-0.1-0.1-0.3-0.3c0.3,0.1,0.5,0.1,0.6,0.1l0,0l0,0c0.1,0,0.1,0,0.3,0.1v-0.1
					c0.1,0,0.4,0,0.5,0.1l0,0c0,0,0,0,0-0.1v-0.1c-1-0.1-1.4-1-2.3-1.3l0.1-0.1c-0.3-0.3-0.5-0.3-0.8-0.5c0,0,0,0-0.1,0
					c0,0,0.1,0,0.1-0.1c0.3,0.1,0.4,0.1,0.6,0.3l0,0c-0.3-0.4-0.8-0.6-0.9-1.3c0,0,0,0,0-0.1c0.1,0,0.4-0.1,0.5-0.1
					c0.1-0.1,0.1-0.4,0.1-0.6c0.3-0.1,0.8-0.3,1-0.5c0-0.1,0-0.4,0-0.6c-0.6-0.4-1.5-0.5-1.4-1.5c0.3-0.3,0.6-0.3,1-0.1h0.1
					c0-0.1,0-0.1-0.1-0.1c0.1-0.1,0.1-0.1,0.3-0.3c0-0.3,0-0.4-0.1-0.6c0.1-0.3,0.3-0.4,0.6-0.4c-0.1-0.1-0.4-0.3-0.5-0.4
					c0,0,0,0-0.1,0c0.1,0,0.1-0.1,0.3-0.1c0.3,0.1,0.3,0.3,0.4,0.4c0.1,0,0.3,0,0.3,0l0.1-0.1c0-0.3,0-0.4-0.1-0.5
					c0,0,0-0.1-0.1-0.1s-0.3,0-0.4,0c0.1,0,0.1,0.1,0.3,0.1l0,0c-0.1,0-0.1,0-0.3-0.1s-0.1-0.3-0.4-0.3c-0.1-0.3-0.1-0.6-0.3-1
					c0.3-0.4,0.9,0.4,1.4,0.5h0.9l0.1-0.4c0,0-0.1,0-0.1,0.1l-0.1-0.1c0.1-0.3,0.5-0.5,0.3-0.9c0,0,0.1,0,0.1,0.1l0,0
					c0-0.1,0-0.1-0.1-0.3c0.5,0.3,3.1,0.6,3.7,0.3c0.1-0.1,0.8-0.8,0.9-1c0-0.1,0-0.4,0-0.5c-0.4-0.1-0.5-0.1-0.5-0.5
					c0.1-0.1,0.3-0.1,0.3-0.3c-0.1-0.6-0.9-0.8-1.1-1.3c0-0.1,0.1-0.1,0.1-0.3h0.1c0.1,0.1,0.3,0.3,0.3,0.4c0.3,0,0.5,0.1,0.8,0.1
					c0.3,0.1,0.5,0.6,0.8,0.6s0.4-0.1,0.6,0c0.1,0.1,0.3,0.3,0.6,0.3c0.8-0.1,0.9-0.5,1.4-0.8c0.3-0.1,0.5-0.3,0.8-0.4
					c0.3-0.3,0.4-0.5,0.6-0.8c0.5-0.3,1-0.4,1.5-0.6c0.6-0.4,0.9-1.1,1.5-1.5c0.8-0.5,1.7-0.6,1.9-1.7h-0.1c0.1-0.4,0.1-0.9,0.4-1.4
					c0.1-0.4,2.9-1.8,3.6-1.5c0.1,0.1,0.3,0.3,0.5,0.4c0-0.1,0-0.1,0.1-0.3h-0.1l0,0c0.4-0.1,0.6-0.6,1-0.5c0.1-0.1,0.1-0.1,0-0.3
					v-0.1c0.8,0,2,0.3,2.8,0.6c0.1-0.1,0-0.1,0.3-0.1c0-0.6,0.8-0.4,1.1-0.6c0.3-0.3,0.4-0.9,0.8-1.1c0.8-0.4,0.6-0.6,1.1-0.9
					c0.3-0.1,0.4-0.1,0.6-0.4c0.5-0.9,0.1-1.1,1.3-1.5c0.1-0.6,0.3-1,0.6-1.4c0.1-0.3,0.4-0.4,0.5-0.6c0.1-0.5,0.1-0.9,0.3-1.4
					c0.3-0.5,0.6-0.8,0.6-1.5c0.5-0.3,0.9-0.1,1.4-0.5c0.6-0.6,1.3-1.1,1.9-1.8c0.3,0,0.5-0.1,0.6-0.1c0.3-0.3,0.6-0.5,0.9-0.6
					c1-0.6,1.9-1.3,2.3-2.7c0-0.3,0-0.5,0-0.8c0.1-0.5,0.6-3.7,0.6-3.7C-600.8,660.8-622.9,661.1-622.9,661.1z M-613.9,700.7
					C-614,700.7-614,700.7-613.9,700.7C-614,700.6-614,700.6-613.9,700.7C-613.9,700.6-613.9,700.7-613.9,700.7L-613.9,700.7z
					 M-613.6,701.1c0.1,0,0.1-0.1,0.3-0.1h0.1h0.1C-613.3,701.2-613.4,701.1-613.6,701.1z M-612.6,702.3L-612.6,702.3L-612.6,702.3
					L-612.6,702.3z M-612,701.6L-612,701.6c-0.1,0.1-0.3,0.1-0.4,0.1l0,0c0.1,0.1,0.1,0.1,0.3,0.3c-0.1-0.1-0.3-0.3-0.4-0.4
					c0,0,0,0-0.1,0c0,0.1-0.1,0.1-0.1,0.3h-0.1c0-0.1,0-0.5-0.1-0.8c0.3,0.1,0.3,0.1,0.3,0.4C-612.5,701.5-612.4,701.5-612,701.6z
					 M-612.4,701L-612.4,701C-612.4,701.1-612.4,701.1-612.4,701h-0.2c0,0,0,0-0.1,0h0.1C-612.5,701-612.5,701-612.4,701z
					 M-608.8,691.6c0.1,0.1,0.1,0.1,0.3,0.3l0,0C-608.7,691.8-608.7,691.8-608.8,691.6z M-597.8,686.8c0,0.1,0,0.1,0,0.3
					c-0.3,0.1-0.5,0.3-0.9,0.4c-0.1,0-0.1,0-0.3-0.1l0,0c0.4-0.3,0.9-0.5,1-1c0.1,0,0.4,0,0.5-0.1c0,0.1,0,0.3,0,0.4
					S-597.6,686.8-597.8,686.8z M-594.5,684.2L-594.5,684.2C-594.4,684-594.4,684.2-594.5,684.2
					C-594.4,684.2-594.5,684.2-594.5,684.2z M-594.4,684C-594.4,683.9-594.4,683.9-594.4,684L-594.4,684
					C-594.4,684-594.4,683.9-594.4,684z M-587.4,680.2L-587.4,680.2L-587.4,680.2C-587.2,680.1-587.2,680.2-587.4,680.2z
					 M-594.6,576.4c0.1-0.1,0.1-0.1,0.3-0.3V576c-0.4-0.1-0.6-0.3-1.1-0.1c-0.1,0-0.4,0.1-0.5,0.1v0.1l0,0
					C-595.8,576.4-594.9,576.5-594.6,576.4z M-599.7,577.5c-0.1-0.1-0.4-0.1-0.6-0.1c0-0.1,0.1-0.3,0.1-0.3
					c-0.3-0.1-0.9-0.4-1.1-0.6c-0.1-0.1,0-0.4-0.3-0.4c0,0,0,0.1-0.1,0.1c-0.8-0.1-1.5,0.3-1.7,0.8c-0.4,0-0.8,0-0.9,0.1
					c0.3,0.1,0.8,0.1,1,0.1l-0.1,0.1c0,0.1-0.1,0.1-0.1,0.3c0.5,0.1,1.5,0,1.9-0.3c0.3,0,0.4,0.1,0.6,0.1c-0.1,0-0.1,0-0.3,0.1
					c0.4,0.3,1,0.4,1.7,0.3C-599.7,577.7-599.7,577.5-599.7,577.5z M-601.9,576.4c0-0.1,0-0.1,0.1-0.3l0.1,0.1h0.1
					C-601.8,576.4-601.8,576.4-601.9,576.4z M-588.1,577.3L-588.1,577.3L-588.1,577.3L-588.1,577.3z M-602.9,577.9
					c0,0.1,0,0.1,0,0.3c0.6,0,1.1,0,1.7-0.1c0,0,0,0,0-0.1c-0.4,0-0.8-0.1-1-0.1S-602.8,577.8-602.9,577.9z M-597.7,577.8
					c-0.1,0-0.1,0-0.3-0.1v0.1C-597.8,577.8-597.8,577.9-597.7,577.8L-597.7,577.8z M-598.7,578c0.1,0.1,0.1,0.1,0.3,0.3
					c0.1,0,0.3,0,0.4,0l0,0v-0.1C-598.2,578-598.5,578-598.7,578C-598.6,578-598.7,578-598.7,578z M-597.4,578.3L-597.4,578.3
					C-597.3,578.3-597.3,578.3-597.4,578.3v-0.2c-0.1,0-0.3,0-0.4-0.1C-597.7,578.2-597.6,578.2-597.4,578.3z M-600.2,578.4
					c-0.1,0-0.3,0.1-0.4,0.1c0,0,0,0.1-0.1,0.1l0.1,0.1c0.3,0,0.4-0.1,0.6-0.1l0.1-0.1C-599.9,578.4-600,578.4-600.2,578.4z
					 M-594.3,578.7L-594.3,578.7C-594.3,578.6-594.3,578.6-594.3,578.7C-594.4,578.7-594.4,578.7-594.3,578.7L-594.3,578.7z
					 M-595.7,579.1c-0.1-0.1-0.3-0.1-0.5-0.1c0.1,0.1,0.1,0.1,0.3,0.1C-595.8,579.1-595.7,579.1-595.7,579.1z M-599.7,579.6
					L-599.7,579.6c-0.1,0-0.3,0-0.3-0.1c0,0,0,0,0.1,0.1H-599.7z M-562.9,582.1c-0.1,0-0.1,0-0.3,0l0.1,0.1
					c-0.4,0.1-0.9-0.3-1.4-0.3l0,0c0,0,0,0.1,0.1,0.1c-0.1-0.1-0.4-0.3-0.6-0.4l0,0c0.1,0.1,0.1,0.1,0.3,0.3l0,0
					c-0.3-0.1-0.1-0.1-0.3,0c-0.4-0.4-0.8-0.9-1.5-0.9c0.1,0.1,0.1,0.1,0.3,0.3c-0.1,0-0.3-0.1-0.3-0.1c-0.1,0.1-0.3,0.1-0.3,0.3
					c0,0,0,0,0,0.1c0.5,0.1,1,0.3,1.5,0.4c-0.3,0.1-0.5,0.1-0.9,0l0,0c0,0,0,0,0,0.1c0.6,0.1,1,0.4,1.4,0.6c0,0,0,0,0,0.1
					c-0.1,0-0.3-0.1-0.4-0.1l0,0c0,0,0,0.1,0.1,0.1c1,0.3,3.6,1.5,4.5,0.5l0,0c-0.5-0.3-1.1-0.8-1.4-1
					C-562.5,582.5-562.6,582.3-562.9,582.1z M-593.1,580.6L-593.1,580.6L-593.1,580.6L-593.1,580.6z M-589.3,581
					C-589.3,581-589.3,580.8-589.3,581c-0.1-0.1,0-0.1-0.3-0.1C-589.4,581-589.5,580.8-589.3,581z M-589.3,581L-589.3,581
					c0.1,0.1,0.3,0.3,0.5,0.4c0.1,0,0.1-0.1,0.3-0.1c0-0.1-0.1-0.1-0.1-0.3c-0.1,0-0.3,0-0.3-0.1C-589,581.1-588.9,581-589.3,581z
					 M-592,581.2C-592,581.2-592.1,581.4-592,581.2c0,0.3,0.3,0.1,0.5,0.1c0,0,0,0,0-0.1c-0.1,0-0.1-0.1-0.3-0.1
					C-591.7,581.2-591.8,581.2-592,581.2L-592,581.2z M-531.6,614.5L-531.6,614.5c-0.1-0.4-0.4-0.8-0.5-1.1l0.1,0.1c0,0,0,0,0.1,0
					v-0.1c0-0.1-0.1-0.4-0.3-0.6c0,0,0,0,0.1,0c0.1,0.1,0.1,0.3,0.3,0.3l0,0c0-0.1-0.1-0.3-0.1-0.5c0.1,0.1,0.3,0.3,0.4,0.4
					c-0.1-0.4-0.6-1.3-1.1-1.5c0.1-0.1,0-0.1,0.1-0.1c-0.1-0.5-0.9-0.9-0.9-1.7l0,0c0.1,0.4,0.4,0.3,0.5,0.5l0,0
					c-0.1-0.3-0.3-0.4-0.5-0.6c0.1,0,0.1-0.1,0.3-0.1c0.1-0.1,0.4,0.3,0.5,0.3c0,0.1,0,0.1,0.1,0.4c0-0.5,0-1-0.1-1.3
					c-0.3-0.3-0.4-0.5-0.5-0.9c-0.6-1-1-1.8-1.4-2.9c-0.1-0.3-3.6-5.7-8.2-9.9c-4.6-4.3-10.2-7.4-10.2-7.4c-0.1,0.1-0.3,0.3-0.4,0.3
					c0,0.3,0,0.3,0.1,0.4c-0.1,0-0.3,0.1-0.4,0.1c0.1,0.3,0.4,0.4,0.5,0.5c0,0.1,0,0.3,0.1,0.4c0.4,0.5,1.1,0.8,1.4,1.4
					c0.1,0,0.1,0,0.3-0.1c0,0.1,0.1,0.3,0.1,0.5c0.1,0.3,1.1,0.8,1.5,0.6c0.1-0.1,0.1-0.4,0.1-0.6c0.1,0,0.1-0.1,0.3-0.1
					c0,0,0-0.1-0.1-0.1l0,0c1,0.5,1.7,1.8,2.8,2.3c0,0.1,0.1,0.3,0.1,0.4c-0.1,0-0.3,0.1-0.3,0.3c0.3,0.3,0.5,0.5,0.8,0.6
					c-0.1,0.1-0.1,0.1-0.3,0l0,0c0.1,0.1,0.1,0.1,0.3,0.3c0.1,0,0.1,0,0.3,0c0-0.1,0-0.3,0-0.3c-0.1-0.1-0.3-0.4-0.4-0.4
					c0-0.1,0,0,0.1-0.1c-0.1-0.1-0.1-0.1-0.3-0.3c0.3,0.1,0.4,0.3,0.4,0.5c0.1,0,0.3,0,0.5,0l0,0v-0.1c-0.1-0.1-0.3-0.3-0.3-0.4
					s0,0,0-0.1c0.1,0,0.3,0,0.4,0c0-0.1-0.1-0.3-0.1-0.3c0.1,0.1,1.7,1.4,1.5,1.5c-0.3,0.1-0.1,0.3-0.1,0.4h-0.1
					c-0.3,0.3-0.4,0-0.6,0c-0.1-0.1-0.1,0,0-0.1c-0.1-0.1-0.3-0.3-0.4-0.3c0,0.1,0,0.1,0,0.3c-0.1,0-0.1,0-0.3,0
					c0,0.3,0,0.1-0.1,0.4c0,0-0.1,0-0.3,0c-0.1-0.1-0.1-0.3-0.1-0.4c-0.1-0.1,0-0.1-0.3-0.1c0,0,0,0.1,0.1,0.1
					c-0.3,0-0.5-0.3-0.8-0.4c-0.1,0,0,0,0-0.1c-0.1-0.1-0.1-0.1-0.4-0.1c0,0,0,0,0-0.1c0,0,0,0,0-0.1c0.3,0.1,0.5,0.3,0.8,0.5
					c-0.1-0.4-0.5-0.9-0.9-0.8c-0.1-0.1-0.1-0.4-0.3-0.5c0,0,0.1,0,0.1,0.1v-0.1c-0.4-0.4-0.9-0.6-1-1.1c-0.1,0-0.1,0.1-0.3,0.1
					c0,0.1,0,0.3,0.1,0.4h-0.1l-0.1,0.1c0.1,0.6,1.5,1.8,1.4,2c0.1,0,0.1,0,0.3,0c0.1,0.3,0.4,0.4,0.5,0.8c-0.1,0-0.1,0-0.1,0.3
					c-0.3-0.1-0.3-0.1-0.6-0.1v0.1c-0.1,0-0.4,0-0.5,0c0,0,0,0.1-0.1,0.1c0,0.1,0.1,0.1,0.1,0.3c0.1,0.1,0.1,0.1,0.3,0
					c0.1,0.3,0.1,0.3,0.1,0.4c-0.1,0.1,0,0.1-0.1,0l0,0c0,0.3,0,0.4,0.1,0.5c-0.1,0-0.3,0-0.3,0c-0.1-0.4-0.3-0.8-0.4-1.1
					c0,0,0,0-0.1,0l0,0c0.1,0.5,0.5,1.3,0.3,1.7c-0.3,0.1-0.6,0.3-0.8,0.5c0.1,0.3,0.3,0.5,0.3,0.8c-0.1,0.1-0.3,0.1-0.4,0.3
					c-0.1,0.1-0.1,0.3,0,0.4l-0.1,0.1c-0.5,0.1-1-0.3-1.4-0.4l0,0c0.3,0.3,0.5,0.5,0.6,0.9l0.1,0.1l0,0c-0.3,0-0.5-0.1-0.6,0.1
					c-0.1-0.1-0.3-0.3-0.5-0.4c-0.3,0.1-0.6,0.1-0.9,0.3c0,0,0,0-0.1,0c0,0.4,0.3,0.3,0.5,0.5c-0.1,0-0.1,0-0.3,0
					c0.4,0.4,1,0.3,1.5,0.5c0,0,1.8,1.7,1.9,1.8c-0.1,0-0.1-0.1-0.3-0.1l0,0c0.5,0.6,1,1.5,1,2.7c-0.6,0.3-2.2-0.3-3.1-0.3
					c-0.3,0-0.8,0.3-1.1,0.1c-0.1,0-0.3-0.3-0.5-0.1c-0.3,0-0.4,0.1-0.3,0.4c-0.3,0-0.4,0.1-0.5,0.3c0,0-0.1,0-0.1,0.1
					c0,0.4,0.3,0.4,0.3,0.6c0.1,0,0.1,0,0.3-0.1c0.1,0.6,0.5,1.1,0.6,1.8c0.3,0.5,0.1,2.2,0,2.7c0.1,0.1,0.3,0.3,0.4,0.4
					c0.1,0,0.1-0.1,0.3-0.1c0.3,0.5,0.4,1,0.3,1.9c0.4-0.1,0.8,0.1,1,0c0.1,0,0.3-0.3,0.4-0.3c0.6-0.3,1,1.3,1.7,1.4
					c0.1-0.1,0.6-0.6,0.8-0.8c0.5,0,0.9-0.1,1.3,0c0,0,0-0.1,0.1-0.1c0.3,0,0.3,0,0.4,0.1c0.1-0.3,0.3-0.8,0.4-1
					c0.1,0,0.1-0.1,0.4-0.1c0-0.3-0.1-0.5,0-1c0.1-0.3,0.3-0.3,0.3-0.5c-1.1-0.8-0.1-1.8-0.4-2.4c0.3-0.3,0.4-0.3,0.6-0.4
					c0.1-0.1,0.4-0.5,0.5-0.6c-0.1-0.4-0.8-1-0.5-1.5c0-0.1,0.3-0.3,0.3-0.4c0.6,0.3,1,0.5,1.5,0.6c0.3-0.3,0.1-0.6,0.6-0.8
					c0-0.1,0.1-0.4,0.1-0.5c0,0,0,0,0-0.1c1,0.1,1.7,1.7,2.2,2.3c0,0,1.4,1.4,1.5,1.4c0,0,0.3-0.1,0.4,0c0.1,0.1,0.1,0.3,0.3,0.5
					c1.1,1,1.4,1.4,1.9,2.9c-0.1,0-0.4,0.1-0.5,0.3c-0.4,0-0.4,0-0.6-0.3c0,0.1,0,0-0.1,0.1l-0.1-0.1l0,0c0,0.1,0,0.4,0,0.5
					c0.1,0.1,1.4,1.3,1.7,1.3l0,0c-0.1-0.6-0.4-0.9-0.4-1.7c0.1,0,0.1,0.1,0.3,0.1l0,0c0.1-0.3,0-0.6-0.1-0.9c0-0.3,0-0.1,0.1-0.3
					c-0.1-0.5-0.4-0.5-0.6-0.9c-0.1-0.3-0.1-0.6-0.3-0.9c0,0,0,0,0.1-0.1c0.1,0.3,0.6,0.6,0.9,0.9c-0.3-0.9-1-1.5-1.8-1.9
					c-0.1-0.1-0.1-0.3-0.1-0.5c-0.3-0.1-0.4,0-0.6-0.3c-0.5-0.5-0.8-1.1-1.3-1.8c-0.4-0.5-1.1-0.6-1.3-1.4c0-0.1,0-0.1,0-0.3
					c-0.1-0.3-0.3-0.3-0.4-0.5c0.3,0,0.3-0.1,0.3-0.3h0.1c0.1,0.1,0.4,0.8,0.5,1c0,0,0,0,0.1,0c0-0.1,0-0.1,0-0.3
					c0,0.1,0.1,0.3,0.1,0.4c0,0,0.1,0,0.1,0.1c0-0.1-0.1-0.3-0.1-0.4c0.4,0.1,0.5,0.8,0.6,1c0.3,0.4,0.6,0.5,0.9,0.8h-0.1
					c0.1,0.1,0.1,0.3,0.3,0.4h0.1l-0.1-0.1c0,0,0,0,0.1,0s0.1,0.1,0.3,0.1c0,0,0,0,0,0.1c-0.1,0-0.1,0-0.3,0c0.1,0.1,0.1,0,0.4,0.1
					c0.4,0.3,1.1,0.9,1.4,1.3c0.3,0.5,0.4,1.1,0.6,1.7c0.2,0.6,0.9,1,1,1.5c0.1,0,0,0,0.1,0c0,0-0.1,0.3,0,0.4
					c0.1,0.1,0.4,0.4,0.6,0.4c0,0.3-0.1,0.1-0.1,0.5c0.3,0.4,0.5,0.8,0.6,1.3c0,0,0.1,0,0.1,0.1l0,0c0-0.1,0-0.1-0.1-0.3l0,0
					c0.1,0.3,0.1,0.4,0.3,0.6c0,0,0,0,0.1,0c0-0.1,0-0.3-0.1-0.3C-531.8,614.3-531.8,614.4-531.6,614.5z M-547.4,596.4
					C-547.6,596.4-547.6,596.4-547.4,596.4C-547.6,596.3-547.6,596.3-547.4,596.4C-547.4,596.3-547.4,596.3-547.4,596.4
					C-547.4,596.3-547.4,596.3-547.4,596.4L-547.4,596.4z M-551.1,611.2c0-0.1,0-0.1,0-0.3c0,0,0,0,0.1,0
					C-551.1,611.1-551.1,611.2-551.1,611.2z M-547.2,596.2C-547.1,596.2-547.1,596.2-547.2,596.2
					C-547.1,596.2-547.1,596.2-547.2,596.2C-547.1,596.2-547.1,596.2-547.2,596.2z M-544.4,595.8c0.1,0,0.1,0,0.3,0.1l0,0
					C-544.1,595.9-544.3,595.9-544.4,595.8z M-539,604.3L-539,604.3C-538.9,604.4-538.9,604.4-539,604.3
					C-539,604.4-539,604.4-539,604.3z M-532.4,612.6c-0.1-0.1-0.3-0.3-0.4-0.4h0.1C-532.5,612.5-532.4,612.5-532.4,612.6
					L-532.4,612.6z M-606.6,584c0.1,0.3,0.6,0.4,0.9,0.5l0,0c0-0.1,0-0.3,0-0.4C-606,584-606.2,584-606.6,584
					C-606.5,584-606.5,584-606.6,584z M-586.3,585.4L-586.3,585.4C-586.3,585.3-586.3,585.3-586.3,585.4
					C-586.3,585.3-586.5,585.3-586.3,585.4C-586.5,585.4-586.6,585.3-586.3,585.4z M-584.3,587.2
					C-584.4,587.1-584.4,587.1-584.3,587.2C-584.4,587.1-584.4,587.2-584.3,587.2C-584.4,587.2-584.4,587.2-584.3,587.2
					L-584.3,587.2z M-591.3,589.9c0.9,0.5,1.5,1,2.7,1.4c0,0,0,0,0.1,0v-0.1C-589.3,590.5-590.3,589.9-591.3,589.9
					C-591.3,589.8-591.3,589.9-591.3,589.9z M-581.6,590.4C-581.6,590.4-581.6,590.5-581.6,590.4
					C-581.5,590.5-581.6,590.5-581.6,590.4C-581.5,590.4-581.5,590.4-581.6,590.4z M-552.2,598.6c0.3-0.1,0.4,0,0.6,0.1
					c0-0.1,0-0.4,0.1-0.5l1.3,0.1h0.1c0,0,0-0.1-0.1-0.1c0.6,0,0.9,0,1.4-0.3c0,0,0,0,0-0.1s0-0.1-0.1-0.3c-0.1,0-0.4,0-0.5,0
					c0.1-0.1,0.3-0.4,0.3-0.6c-0.1-0.4-0.8-1.1-1.1-0.6h-0.1c-0.3-0.5-0.6-1-1.3-1.4c-0.3-0.1-0.5-0.3-0.6-0.3c-0.6-0.6-0.9-1-1.9-1
					c0.1-0.1,0.3-0.1,0.3-0.3c-0.1,0-0.1-0.1-0.3-0.1c0.1-0.3,0-0.5,0-0.9c-0.4-0.4-1-0.3-1.4-0.1c0-0.3,0.1-0.1-0.1-0.3
					c0-0.1,0.1-0.3,0.3-0.4c0-0.1,0-0.1-0.1-0.3c-0.4-0.1-0.8,0.1-1.1,0c-0.1,0.1-0.1,0.1,0,0.3c-0.1,0.1,0,0.1,0.1,0.4
					c0,0,0,0-0.1,0s-0.1,0-0.1,0.1c0.1,0.1,0.1,0.3,0.3,0.4l0,0c-0.1-0.1-0.4-0.3-0.5-0.4c-0.1,0.1,0,0-0.1,0.3
					c0.3,0.3,0.6,0.4,0.8,0.4c0,0,0,0.1,0.1,0.1c-0.1,0-0.1,0.1-0.3,0.1c0.1,0.3,0.1,0.3,0.1,0.4c0.1,0,0.3,0,0.4,0v-0.1
					c0,0,0,0,0-0.1l0,0c0.1,0.4,0.3,0.8,0.4,1.1h0.1c0,0,0,0,0-0.1c0,0,0-0.1-0.1-0.1c0.1,0,0.1,0.1,0.3,0.1l0,0
					c0-0.1-0.1-0.3-0.1-0.4c0.1,0.1,0.3,0.1,0.3,0.3c0.1,0.1,0.1,0.4,0,0.5c0.1,0.1,0.3,0.3,0.4,0.3l0,0c0,0,0-0.1-0.1-0.1l0,0
					c0.1,0,0.3,0.1,0.4,0.1v-0.1c0.3,0.1,0.4,0,0.5-0.1c0.3,0.4,0.1,0.9,0.8,0.8c0,0.3,0.1,0.4,0.3,0.6c-0.3,0.3-0.6,0.1-0.9,0
					c0,0.3,0.1,0.3,0.3,0.4l-0.1,0.1c0,0,0,0,0,0.1c0.1,0,0.3-0.1,0.3-0.1c0.1,0.1,0.3,0.3,0.3,0.4c0,0.3-0.3,0.4-0.5,0.4l-0.1,0.1
					c0.1,0.1,0.3,0.3,0.4,0.4c0.4-0.3,0.8,0,1.3,0.3c0.1,0,0.3-0.1,0.3-0.1c0,0.1,0,0.1,0,0.3c-0.3,0-0.5,0-0.8,0
					c0,0.4-0.3,0.8-0.5,1c0,0,0,0,0,0.1c0.3,0,0.3,0,0.4,0.1C-552.4,598.8-552.4,598.7-552.2,598.6z M-555.5,593.7L-555.5,593.7
					C-555.5,593.6-555.5,593.6-555.5,593.7c0.1-0.1,0.1,0,0.2,0C-555.4,593.7-555.5,593.7-555.5,593.7z M-581.8,590.9
					C-581.6,590.8-581.6,590.8-581.8,590.9c-0.1-0.1-0.4-0.3-0.6-0.3c-0.2,0-0.5,0-0.8,0c-0.1,0-0.5,0.3-0.8,0.4
					c-0.4,0.3-0.6,0.8-1.1,0.9c-0.1,0.1-0.1,0.1,0,0.3l0,0c-0.1,0-0.1,0-0.3-0.1c-0.3,0-0.4,0.3-0.5,0.4c0.1,0.1,0.1,0.1,0.3,0.3
					c-0.3-0.1-0.8,0.1-1.1,0.1l0.1,0.4c0.6,0.1,3.3,0.6,3.4,0.9h-0.1c0.3,0.1,0.5,0.3,0.8,0.3c0-0.1,0,0,0.1-0.1
					c0.1,0.1,0.4,0.1,0.5,0.3c-0.4,0.1-0.6,0.3-1.1,0.1v0.1c0.8,0.3,1.5-0.1,2.2-0.3c0,0.1,0.1,0.1,0.1,0.3c0,0.4-0.3,0.4-0.4,0.5
					c0,0.1,0,0.1,0.1,0.3c0.1,0,0.4-0.1,0.5-0.1c-0.1,0.1-0.1,0.3-0.1,0.5c0.3,0,0.4,0.1,0.6,0.1c0.3-0.1,0.4-0.4,0.6-0.6
					c0-0.1,0-0.3,0-0.3c-0.3,0-0.3,0.1-0.5,0.1v-0.1c0.1-0.1,0.3-0.3,0.4-0.4c0,0,0,0,0-0.1l0,0c-0.5,0-0.6,0.1-0.9,0.4
					c0,0,0-0.1-0.1-0.1s0,0-0.1,0c0.3-0.3,0.9-0.4,0.9-0.5c0,0,0,0,0.1-0.1c-0.1-0.1-0.5-0.1-0.9-0.1c0.1-0.3,0-0.1,0-0.4
					c0.3,0,0.3-0.1,0.4-0.3c-0.3-0.3-0.6-0.5-1-0.4c-0.1-0.1,0-0.3-0.3-0.4c-0.1,0,0,0.1-0.1,0c0,0.1,0,0.1,0,0.1
					c-0.1,0-0.1,0-0.3,0c-0.3,0-0.1,0-0.1-0.3c-0.3,0-0.1,0-0.1,0.1c-0.1-0.1-0.3-0.1-0.4-0.1c0,0,0-0.1,0.1-0.1c-0.1-0.1,0,0-0.3,0
					c0,0,0,0-0.1-0.1v-0.1c0.1,0,0.3,0,0.5,0l0,0c-0.3-0.1-0.5-0.1-0.8-0.4c-0.3,0.1-0.5,0.1-0.8,0.3c0.1-0.4,0.8-0.8,1.1-0.8
					l0.1-0.1c-0.1-0.1-0.1-0.1-0.3-0.1l0,0l0,0C-582.1,590.9-582,590.9-581.8,590.9L-581.8,590.9z M-557.5,591.9
					c0.1-0.1,0.1-0.1,0.3-0.3c0-0.1,0-0.3-0.1-0.4c-0.1,0-0.1,0-0.3,0c-0.1,0.1-0.3,0.1-0.3,0.3
					C-557.8,591.7-557.6,591.8-557.5,591.9C-557.6,591.9-557.6,591.9-557.5,591.9z M-582,591.3C-582,591.3-581.9,591.3-582,591.3
					C-581.9,591.3-582,591.3-582,591.3L-582,591.3z M-557.8,591.9C-557.8,591.9-557.9,591.9-557.8,591.9c0,0.2,0.2,0.4,0.2,0.6h0.1
					c0-0.1-0.1-0.4-0.1-0.5C-557.6,592.1-557.6,591.9-557.8,591.9z M-581.9,591.6L-581.9,591.6
					C-581.9,591.4-581.9,591.4-581.9,591.6C-581.9,591.4-582,591.4-581.9,591.6C-582,591.4-581.9,591.4-581.9,591.6z M-547.7,592.8
					C-547.8,592.7-547.7,592.7-547.7,592.8L-547.7,592.8L-547.7,592.8z M-556.8,592.7C-556.8,592.7-556.8,592.6-556.8,592.7
					C-556.8,592.6-556.9,592.6-556.8,592.7C-556.8,592.6-556.8,592.6-556.8,592.7z M-557.4,592.6L-557.4,592.6
					C-557.5,592.6-557.5,592.6-557.4,592.6C-557.5,592.6-557.5,592.6-557.4,592.6C-557.5,592.7-557.5,592.6-557.4,592.6z
					 M-556.8,593L-556.8,593L-556.8,593L-556.8,593L-556.8,593C-556.8,592.8-556.8,592.8-556.8,593
					C-556.8,592.8-556.8,592.8-556.8,593z M-556.9,593C-556.9,593-556.9,593.1-556.9,593C-556.9,593.1-556.9,593.1-556.9,593
					C-556.9,593-556.9,593.1-556.9,593z M-586.1,592.3L-586.1,592.3C-586.2,592.4-586.2,592.4-586.1,592.3c0,0.1,0.3,0.1,0.4,0.1
					c-0.1-0.1-0.1-0.1-0.3-0.3C-586,592.3-586,592.3-586.1,592.3z M-580.7,592.7L-580.7,592.7c0.1,0.1,0.3,0.1,0.3,0.1
					C-580.5,592.7-580.5,592.7-580.7,592.7z M-556,593.9c0.1-0.1,0.1-0.4,0-0.5c-0.1,0.1-0.1,0.3-0.3,0.3
					C-556.2,593.7-556.1,593.7-556,593.9z M-556.2,593.3C-556.2,593.3-556.2,593.5-556.2,593.3
					C-556.2,593.5-556.2,593.5-556.2,593.3C-556.2,593.5-556.2,593.5-556.2,593.3L-556.2,593.3L-556.2,593.3z M-591.7,592.5
					c-0.1,0-0.3,0.1-0.4,0.1c0,0,0,0,0,0.1c0.4,0.4,0.8,0.6,1.4,0.8c0.1,0.1,0,0,0.1,0.1s0.1,0.1,0.3,0.3c0.4,0,0.3-0.3,0.8-0.3l0,0
					l0,0c-0.3-0.1-1.9-0.5-1.9-0.5c-0.1-0.1-0.1,0-0.1-0.3C-591.8,592.6-591.7,592.7-591.7,592.5L-591.7,592.5z M-555.2,595.4
					C-555.2,595.4-555.2,595.3-555.2,595.4c0.3-0.1,0.1-0.3,0.4-0.4v-0.1c-0.3-0.3-0.5-0.3-0.8-0.6c-0.3-0.1-0.5-0.1-0.8,0.1
					c0-0.1,0,0,0.1-0.1c-0.1,0-0.3-0.1-0.4-0.1c-0.1,0.1-0.4,0.1-0.6,0.3c0,0.3,0,0.3-0.1,0.4c0.1,0.1,0.3,0.1,0.5,0
					c-0.1,0.3-0.1,0.1-0.1,0.3c-0.4,0-0.8,0-1,0c0,0.3,0.1,0.1,0.1,0.3h-0.1c0.1,0.1,0.3,0.1,0.5,0.1c-0.1,0.1-0.1,0.1-0.3,0.3
					c0.3,0.4,0.5,0.1,1,0.3c-0.3,0.1-0.1,0.1-0.3,0.4c-0.1,0.1-0.1,0.1,0,0.3c-0.1,0.1-0.1,0.1,0,0.3c-0.1,0-0.3,0-0.3,0
					c0,0.1,0,0.1-0.1,0.3c0.1,0,0.3,0,0.4-0.1c-0.1,0-0.1,0.1-0.3,0.1c0.5,1.1,2-0.4,2.8-0.3C-554.5,596.4-554.7,595.6-555.2,595.4z
					 M-580.1,593.7C-580.2,593.7-580.2,593.6-580.1,593.7C-580.2,593.6-580.2,593.7-580.1,593.7
					C-580.2,593.7-580.2,593.7-580.1,593.7z M-545,594.5C-545,594.5-545,594.6-545,594.5c0.2,0.1,0.2,0.1,0.4,0.2
					C-544.8,594.6-544.9,594.6-545,594.5z M-595.4,593.9L-595.4,593.9c0.1,0,0.1,0,0.3-0.1L-595.4,593.9
					C-595.4,593.7-595.4,593.7-595.4,593.9z M-554.3,595.1C-554.2,595.1-554.2,595.1-554.3,595.1c0.1,0.1,0.1,0.1,0.3,0.1v-0.1
					C-554.1,595.1-554.1,595-554.3,595.1C-554.2,594.9-554.2,595-554.3,595.1z M-597.8,594C-597.7,593.9-597.7,593.9-597.8,594
					C-597.8,593.9-597.8,593.9-597.8,594C-597.8,593.9-597.8,593.9-597.8,594z M-597.4,593.9C-597.6,593.9-597.6,593.9-597.4,593.9
					C-597.6,593.9-597.6,594-597.4,593.9C-597.6,594-597.6,594-597.4,593.9z M-583.4,594.5C-583.4,594.5-583.4,594.6-583.4,594.5
					c0.1,0.1,0.1,0.1,0.2,0C-583.3,594.5-583.3,594.5-583.4,594.5z M-580.7,594.6C-580.9,594.6-580.9,594.6-580.7,594.6
					c-0.1,0-0.3,0.1-0.3,0.1v0.1h0.1C-580.9,594.8-580.9,594.8-580.7,594.6C-580.7,594.8-580.7,594.6-580.7,594.6z M-594.9,594.2
					C-594.8,594.2-594.9,594.2-594.9,594.2C-594.8,594.2-594.9,594.2-594.9,594.2z M-583.4,594.8L-583.4,594.8c0.1,0,0.1,0,0.3,0
					C-583.3,594.8-583.3,594.6-583.4,594.8C-583.4,594.6-583.4,594.8-583.4,594.8z M-583.3,594.8
					C-583.3,594.8-583.3,594.9-583.3,594.8C-583.2,594.9-583.2,594.8-583.3,594.8C-583.2,594.8-583.2,594.8-583.3,594.8z
					 M-547.6,596.5C-547.6,596.5-547.6,596.7-547.6,596.5C-547.6,596.7-547.6,596.7-547.6,596.5
					C-547.6,596.5-547.4,596.7-547.6,596.5z M-599.9,595.4C-599.9,595.4-600,595.4-599.9,595.4C-600,595.4-600,595.4-599.9,595.4
					C-600,595.4-599.9,595.4-599.9,595.4z M-600.8,595.8c-0.1,0-0.1,0-0.3,0.1c0,0,0,0,0,0.1c0.1,0,0.3,0,0.4,0l0,0
					C-600.6,595.9-600.5,595.9-600.8,595.8z M-601.8,595.9L-601.8,595.9L-601.8,595.9z M-602.3,596C-602.2,596-602.2,596-602.3,596
					C-602.3,595.9-602.2,596-602.3,596C-602.3,595.9-602.3,596-602.3,596z M-600,596.3L-600,596.3C-600,596.3-600,596.2-600,596.3
					C-600,596.2-600,596.2-600,596.3C-600.1,596.2-600.1,596.2-600,596.3C-600.2,596.2-600.1,596.3-600,596.3z M-608.5,600.9
					C-608.7,600.9-608.7,600.9-608.5,600.9C-608.7,600.9-608.7,600.9-608.5,600.9C-608.7,600.9-608.7,600.9-608.5,600.9z
					 M-644.8,603.8C-644.8,603.8-644.8,603.9-644.8,603.8C-644.8,603.9-644.8,603.9-644.8,603.8c0.1-0.1,0.1-0.3,0.3-0.5h-0.1
					C-644.8,603.4-644.8,603.7-644.8,603.8z M-631.1,604.2C-631.1,604.2-631,604.2-631.1,604.2C-631,604.2-631.1,604.2-631.1,604.2
					L-631.1,604.2z M-537.2,606.9C-537.2,607-537.2,607-537.2,606.9C-537.2,606.9-537.1,606.9-537.2,606.9L-537.2,606.9z
					 M-539.7,608.4C-539.7,608.4-539.5,608.4-539.7,608.4c0-0.5-0.3-1.5-0.6-1.8c0,0.1,0.1,0.1,0.1,0.3c-0.1,0-0.1,0.1-0.3,0.1
					C-540.3,607.5-540,608.1-539.7,608.4L-539.7,608.4z M-539.7,606.9C-539.7,606.9-539.8,606.9-539.7,606.9L-539.7,606.9
					L-539.7,606.9C-539.7,606.9-539.5,606.9-539.7,606.9z M-646.5,609.2L-646.5,609.2c0,0.1,0,0.1,0.1,0.3l0,0
					C-646.4,609.2-646.4,609.2-646.5,609.2z M-539.5,608.7c0,0.1,0,0.3-0.1,0.4c-0.1,0.1-0.1,0.1-0.3,0c0,0.4,0.5,0.9,0.6,1.3
					c0.1,0.3,0,0.6,0.1,0.9c0.1,0.1,0.1,0.3,0.5,0.3c0-0.1,0-0.3,0-0.4c0.1,0,0.1,0,0.3,0.1l0,0
					C-538.5,610.2-538.9,609.3-539.5,608.7C-539.4,608.7-539.4,608.7-539.5,608.7z M-533.3,609.7
					C-533.3,609.7-533.2,609.8-533.3,609.7C-533.2,609.6-533.2,609.7-533.3,609.7L-533.3,609.7z M-532.9,610.1
					C-532.8,610.1-532.8,610.1-532.9,610.1C-532.9,610-532.9,610-532.9,610.1C-532.9,609.9-532.9,609.9-532.9,610.1z M-533.2,610.6
					C-533,610.6-533,610.4-533.2,610.6c0-0.1,0-0.3-0.1-0.3C-533.2,610.3-533.2,610.3-533.2,610.6c0-0.1-0.1-0.3-0.1-0.3
					C-533.2,610.4-533.2,610.4-533.2,610.6z M-532.8,610.6L-532.8,610.6L-532.8,610.6C-532.6,610.4-532.8,610.4-532.8,610.6
					L-532.8,610.6z M-533.9,611.1c0-0.1,0-0.1-0.1-0.3C-534.1,610.9-534.1,610.9-533.9,611.1z M-532.4,611.6L-532.4,611.6
					c0,0.1,0.1,0.1,0.1,0.3C-532.3,611.7-532.4,611.7-532.4,611.6z M-533.3,612.2c0,0.1,0,0.3,0,0.3l0.1,0.1h0.1c0,0,0,0,0-0.1
					C-533.2,612.5-533.3,612.4-533.3,612.2z M-533,613L-533,613L-533,613L-533,613C-533,612.9-533,612.9-533,613z M-531.6,614.6
					c0,0.1,0.1,0.1,0.1,0.3c0,0,0,0,0-0.1C-531.5,614.6-531.6,614.6-531.6,614.6z M-588.5,680.1
					C-588.5,680.2-588.6,680.2-588.5,680.1C-588.6,680.2-588.5,680.2-588.5,680.1c0.1,0.1,0.1,0.1,0.3,0.1l0,0
					C-588.4,680.2-588.5,680.2-588.5,680.1z M-588.3,680.2C-588.1,680.2-588.1,680.2-588.3,680.2
					C-588.1,680.2-588.1,680.2-588.3,680.2L-588.3,680.2z M-618.5,687.7C-618.4,687.7-618.4,687.7-618.5,687.7L-618.5,687.7z
					 M-618.6,689L-618.6,689C-618.5,689-618.5,689-618.6,689C-618.5,688.9-618.5,688.9-618.6,689
					C-618.6,688.9-618.6,688.9-618.6,689z M-617.1,692.7L-617.1,692.7C-617.1,692.6-617.1,692.6-617.1,692.7L-617.1,692.7
					C-617.2,692.7-617.2,692.6-617.1,692.7z M-618.1,693.5L-618.1,693.5l0.3,0.1l0,0C-618,693.5-618,693.5-618.1,693.5z
					 M-617.8,694.2C-617.8,694.2-617.8,694.4-617.8,694.2C-617.8,694.4-617.8,694.4-617.8,694.2
					C-617.8,694.4-617.8,694.2-617.8,694.2z M-617.5,694.9L-617.5,694.9L-617.5,694.9L-617.5,694.9z M-610.1,703.2
					C-610.1,703-610.2,703-610.1,703.2C-610.2,703-610.2,703-610.1,703.2C-610.2,703.2-610.2,703-610.1,703.2z M-608.7,703.2
					L-608.7,703.2c-0.1-0.1-0.3-0.1-0.5-0.1C-609,703.2-608.8,703.2-608.7,703.2z M-610.4,703.2c0.1,0.3,0.3,0.3,0.4,0.3
					C-610.2,703.3-610.3,703.2-610.4,703.2z"/>
			</g>
		</g>
		<g id="Globe_1_">
			<g>
				<path class="st0" d="M-593.7,571.4c-29.1,0-54.1,17.6-64.8,42.9c9.8-17.6,30.7-38.6,64.7-38.6c30.6,0,53.6,18.5,64.8,38.8
					C-539.7,589.1-564.7,571.4-593.7,571.4z"/>
			</g>
		</g>
		<path class="st0" d="M-526.7,663.1c-9.2,27.9-34.7,49.6-67.2,49.6c-34.4,0-57.6-21.4-67-49c9.7,25.6,36,44.1,67,44.1
			C-562.6,707.9-536.2,689.1-526.7,663.1L-526.7,663.1z"/>
	</g>
	<g>
		<g>
			<path class="st0" d="M-714.1,661.3c-7,0-10.7-4.5-10.8-13l-0.1-19.6c0-0.3,0.1-0.4,0.4-0.4l6.1-0.6c0.1,0,0.3,0,0.4,0.1
				c0.1,0.1,0.1,0.3,0.1,0.3l0.1,19.4c0,4.2,1.7,6.4,4.8,6.4c0.3,0,0.5,0,0.8,0c3.7-0.4,5.6-2.9,5.6-7.5l-0.1-19.4
				c0-0.3,0.1-0.4,0.4-0.4l6.1-0.6c0.1,0,0.3,0,0.4,0.1c0.1,0.1,0.1,0.3,0.1,0.3l0.1,19.6c0,5.2-1.5,14.2-12.5,15.3
				C-712.9,661.3-713.5,661.3-714.1,661.3L-714.1,661.3z"/>
		</g>
		<g>
			<path class="st0" d="M-693.2,658.5c-0.1,0-0.3,0-0.3-0.1c-0.1-0.1-0.1-0.1-0.1-0.3l-0.1-32.3c0-0.3,0.1-0.4,0.4-0.4l6.5-0.5
				c0.1,0,0.3,0,0.4,0.1l13.8,18.2l-0.1-19c0-0.3,0.1-0.4,0.4-0.4l5.2-0.4c0.1,0,0.3,0,0.3,0.1c0.1,0.1,0.1,0.1,0.1,0.3l0.1,32.3
				c0,0.3-0.1,0.4-0.4,0.4l-5.4,0.4c-0.1,0-0.3,0-0.4-0.1l-14.9-19.8l0.1,20.5c0,0.3-0.1,0.4-0.4,0.4L-693.2,658.5L-693.2,658.5
				L-693.2,658.5z"/>
		</g>
		<g>
			<path class="st0" d="M-658.8,656.4c-0.1,0-0.3,0-0.3-0.1c-0.1-0.1-0.1-0.1-0.1-0.3l-0.1-32.1c0-0.3,0.1-0.4,0.4-0.4l7-0.4
				c0.1,0,0.3,0,0.3,0.1c0.1,0.1,0.1,0.1,0.1,0.3l0.1,32.1c0,0.3-0.1,0.4-0.4,0.4L-658.8,656.4L-658.8,656.4L-658.8,656.4z"/>
		</g>
		<g>
			<path class="st0" d="M-632.9,655.2c-0.1,0-0.4-0.1-0.4-0.3l-13.8-31.8c0-0.1,0-0.3,0-0.4c0.1-0.1,0.3-0.1,0.4-0.3l8-0.3
				c0.3,0,0.4,0.1,0.4,0.3l8.9,20.8l9.2-21.3c0.1-0.1,0.3-0.3,0.4-0.3l6.4-0.1c0.1,0,0.3,0.1,0.4,0.1c0.1,0.1,0.1,0.3,0,0.4
				l-14,32.7c-0.1,0.1-0.3,0.3-0.4,0.3L-632.9,655.2L-632.9,655.2L-632.9,655.2z"/>
		</g>
		<g>
			<path class="st0" d="M-608,654.7c-0.3,0-0.4-0.1-0.4-0.4l-0.3-32.1c0-0.1,0-0.3,0.1-0.3c0.1-0.1,0.1-0.1,0.3-0.1h25.8l0,0
				c0.3,0,0.4,0.1,0.4,0.4v6.2c0,0.1,0,0.3-0.1,0.3c-0.1,0.1-0.1,0.1-0.3,0.1h-18v5.6h12.1l0,0c0.3,0,0.4,0.1,0.4,0.4v6.4
				c0,0.1,0,0.3-0.1,0.3c-0.1,0.1-0.1,0.1-0.3,0.1h-12.1v6h18.2l0,0c0.3,0,0.4,0.1,0.4,0.4v6.4c0,0.1,0,0.3-0.1,0.3
				c-0.1,0.1-0.1,0.1-0.3,0.1L-608,654.7L-608,654.7L-608,654.7z"/>
		</g>
		<g>
			<path class="st0" d="M-545.9,655.6L-545.9,655.6l-8.4-0.3c-0.1,0-0.3-0.1-0.4-0.3l-7-12.1l-4.6-0.1v11.7c0,0.1,0,0.3-0.1,0.3
				c-0.1,0.1-0.3,0.1-0.3,0.1l-7-0.3c-0.3,0-0.4-0.3-0.4-0.4l-0.1-32.3c0-0.1,0-0.3,0.1-0.3c0.1-0.1,0.1-0.1,0.3-0.1l17.7,0.5
				c5.9,0.1,9.3,4,9.3,10.3c0,6.1-3.3,8.7-6.2,9.7l7.4,12.8c0.1,0.1,0.1,0.3,0,0.4C-545.7,655.6-545.8,655.6-545.9,655.6
				L-545.9,655.6z M-566.3,635.8l5.7,0.1c0.3,0,0.5,0,0.8,0l0,0c2,0,3.3-0.3,4-1c0.5-0.5,0.8-1.4,0.8-2.7c0-1.5-0.3-2.9-3.8-3.1
				l-7.5-0.3V635.8L-566.3,635.8z"/>
		</g>
		<g>
			<path class="st0" d="M-527.5,657.5c-0.4,0-0.9,0-1.4,0c-5-0.3-10.2-3.4-11.7-4.3c-0.1-0.1-0.3-0.3-0.3-0.4v-7.4
				c0-0.1,0.1-0.3,0.3-0.4c0.1-0.1,0.3-0.1,0.4,0c4.5,3.1,8.8,5,11.2,5.1c2.3,0.1,3.8-0.3,4.6-1c0.4-0.4,0.5-0.9,0.5-1.5
				c0-0.8-0.8-1.4-2.3-2.2c-0.9-0.5-2-0.9-3.2-1.4c-5-2-12-4.8-12-12.5c0-2.6,0.8-4.6,2.4-6.2c2-2,5.4-3.1,9.1-2.9
				c4.3,0.3,9.6,2.4,12,4c0.1,0.1,0.3,0.3,0.3,0.4v7.3c0,0.1-0.1,0.3-0.3,0.4c-0.1,0.1-0.3,0.1-0.4,0c-1.5-1-6.8-4.2-11.6-4.5
				c-1.7-0.1-2.6,0.4-2.9,0.8c-0.4,0.4-0.4,0.8-0.4,0.9c0,0.8,0.8,1.5,2.3,2.4c0.9,0.5,2.2,1,3.4,1.5c5,2,11.7,5,11.7,11.9
				c0,3.1-0.9,5.5-2.7,7.3C-520.3,656.5-523.5,657.5-527.5,657.5L-527.5,657.5z"/>
		</g>
		<g>
			<path class="st0" d="M-483.5,659.5L-483.5,659.5l-7-0.5c-0.1,0-0.3-0.1-0.4-0.3l-2.3-6.5l-11.4-0.9l-2.4,6.1
				c-0.1,0.1-0.3,0.3-0.4,0.3l-5.9-0.4c-0.1,0-0.3-0.1-0.4-0.3c-0.1-0.1-0.1-0.3,0-0.4l12.5-31.6c0.1-0.1,0.3-0.3,0.4-0.3l4.8,0.4
				c0.1,0,0.3,0.1,0.4,0.3l12.2,33.4c0,0.1,0,0.3,0,0.4C-483.3,659.5-483.4,659.5-483.5,659.5L-483.5,659.5z M-501.8,644.5l5.9,0.4
				l-2.9-7.9L-501.8,644.5L-501.8,644.5z"/>
		</g>
		<g>
			<path class="st0" d="M-458.5,661.8L-458.5,661.8l-20-1.8c-0.3,0-0.4-0.3-0.4-0.4l-0.1-32.7c0-0.1,0-0.3,0.1-0.3
				c0.1-0.1,0.3-0.1,0.4-0.1l6,0.5c0.3,0,0.4,0.3,0.4,0.4l0.1,25.9l13.6,1.3c0.3,0,0.4,0.3,0.4,0.4v6.4c0,0.1,0,0.3-0.1,0.3
				C-458.3,661.8-458.4,661.8-458.5,661.8L-458.5,661.8z"/>
		</g>
	</g>
	<g>
		<g>
			<path class="st0" d="M-658.3,725.9h-1.4l-0.5-1h-2.3l-0.5,1h-1.1l2.4-5h1L-658.3,725.9L-658.3,725.9z M-662,723.8h1.4l-0.6-1.4
				L-662,723.8L-662,723.8z"/>
		</g>
		<g>
			<path class="st0" d="M-646.4,726c-1.4,0-2.8-0.8-2.8-2.6s1.4-2.7,2.8-2.7c0.9,0,1.7,0.4,1.9,0.4h0.1v1.1l-0.3-0.1
				c-0.1-0.1-0.9-0.4-1.7-0.4c-1.1,0-1.5,1-1.5,1.7c0,0.6,0.3,1.7,1.5,1.7c0.9,0,1.3-0.3,1.5-0.4l0.4-0.3v1.1l-0.3,0.1
				C-645,725.7-645.5,726-646.4,726L-646.4,726z"/>
		</g>
		<g>
			<path class="st0" d="M-638,726c-1.4,0-2.8-0.8-2.8-2.6s1.4-2.7,2.8-2.7s2.8,0.8,2.8,2.7C-635.2,725.1-636.6,726-638,726L-638,726
				z M-638,721.8c-1.1,0-1.5,1-1.5,1.7s0.3,1.7,1.5,1.7c1.1,0,1.5-1,1.5-1.7C-636.5,722.7-636.7,721.8-638,721.8L-638,721.8z"/>
		</g>
		<g>
			<path class="st0" d="M-625.6,725.9h-1.3v-2.6l-1.1,2.6h-0.8l-1.3-2.6v2.6h-1v-5h1.3l1.5,3.2l1.5-3.2h1.1L-625.6,725.9
				L-625.6,725.9z"/>
		</g>
		<g>
			<path class="st0" d="M-618.7,726c-1.4,0-2.8-0.8-2.8-2.6s1.4-2.7,2.8-2.7c0.9,0,1.7,0.4,1.9,0.4h0.1v1.1l-0.3-0.1
				c-0.1-0.1-0.9-0.4-1.7-0.4c-1.1,0-1.5,1-1.5,1.7c0,0.6,0.3,1.7,1.5,1.7c0.9,0,1.3-0.3,1.5-0.4l0.4-0.3v1.1l-0.3,0.1
				C-617.3,725.7-617.8,726-618.7,726L-618.7,726z"/>
		</g>
		<g>
			<path class="st0" d="M-607.6,725.9h-1.4l-0.5-1h-2.3l-0.5,1h-1.1l2.4-5h1L-607.6,725.9L-607.6,725.9z M-611.3,723.8h1.4l-0.6-1.4
				L-611.3,723.8L-611.3,723.8z"/>
		</g>
		<g>
			<path class="st0" d="M-602.2,726c-0.6,0-1.5-0.3-1.9-0.5h-0.1v-1.1l0.3,0.1c0.5,0.3,1.3,0.5,1.8,0.5c0.6,0,1-0.1,1-0.5
				c0-0.3-0.6-0.4-1.3-0.6c-1-0.3-1.9-0.8-1.9-1.7s0.8-1.4,2-1.4c0.8,0,1.7,0.3,2,0.4h0.1v1.1l-0.3-0.1c-0.3-0.1-1.1-0.5-1.8-0.5
				c-0.4,0-0.6,0.1-0.6,0.4c0,0.3,0.4,0.4,1.1,0.6c0.1,0,0.4,0.1,0.5,0.1c0.8,0.3,1.5,0.6,1.5,1.4C-599.9,725-600.1,726-602.2,726
				L-602.2,726z"/>
		</g>
		<g>
			<path class="st0" d="M-593.4,725.9h-1.3v-4h-1.6v-1h4.7v1h-1.7v4H-593.4z"/>
		</g>
		<g>
			<path class="st0" d="M-579.7,726c-1.4,0-2.8-0.8-2.8-2.6s1.4-2.7,2.8-2.7c0.9,0,1.7,0.4,1.9,0.4h0.1v1.1l-0.3-0.1
				c-0.1-0.1-0.9-0.4-1.7-0.4c-1.1,0-1.5,1-1.5,1.7c0,0.6,0.3,1.7,1.5,1.7c0.9,0,1.3-0.3,1.5-0.4l0.4-0.3v1.1l-0.3,0.1
				C-578.4,725.7-578.9,726-579.7,726L-579.7,726z"/>
		</g>
		<g>
			<path class="st0" d="M-571.3,726c-1.4,0-2.8-0.8-2.8-2.6s1.4-2.7,2.8-2.7s2.8,0.8,2.8,2.7C-568.5,725.1-569.9,726-571.3,726
				L-571.3,726z M-571.3,721.8c-1.1,0-1.5,1-1.5,1.7s0.3,1.7,1.5,1.7c1.1,0,1.5-1,1.5-1.7C-569.8,722.7-570.1,721.8-571.3,721.8
				L-571.3,721.8z"/>
		</g>
		<g>
			<path class="st0" d="M-558.9,725.9h-1.3v-2.6l-1.1,2.6h-0.8l-1.3-2.6v2.6h-1v-5h1.3l1.5,3.2l1.5-3.2h1.1L-558.9,725.9
				L-558.9,725.9z"/>
		</g>
		<g>
			<path class="st0" d="M-553.4,725.9h-1.3v-5h2.7c1.3,0,1.9,0.5,1.9,1.7c0,1.7-1.1,1.9-2.2,1.9h-1.1L-553.4,725.9L-553.4,725.9z
				 M-553.4,723.4h1c0.9,0,1-0.1,1-0.9c0-0.5-0.3-0.8-0.8-0.8h-1.3L-553.4,723.4L-553.4,723.4z"/>
		</g>
		<g>
			<path class="st0" d="M-540.9,725.9h-1.4l-0.5-1h-2.3l-0.5,1h-1.1l2.4-5h1L-540.9,725.9L-540.9,725.9z M-544.6,723.8h1.4l-0.6-1.4
				L-544.6,723.8L-544.6,723.8z"/>
		</g>
		<g>
			<path class="st0" d="M-532.3,725.9h-1l-2.9-3.3v3.3h-1v-5h1.3l2.7,3.1v-3.1h1L-532.3,725.9L-532.3,725.9z"/>
		</g>
		<g>
			<path class="st0" d="M-525.3,725.9h-1.3v-1.8l-2.2-3.2h1.5l1.5,2l1.5-2h1.3l-2.3,3.2V725.9L-525.3,725.9z"/>
		</g>
	</g>
	<g>
		<path class="st0" d="M-452.2,655.8c1.5,0,2.7,1.1,2.7,2.7c0,1.5-1.3,2.7-2.7,2.7c-1.5,0-2.8-1.1-2.8-2.7
			C-455,657-453.7,655.8-452.2,655.8z M-452.2,660.9c1.3,0,2.3-1,2.3-2.3s-1-2.3-2.3-2.3s-2.3,1-2.3,2.3S-453.4,660.9-452.2,660.9z
			 M-450.8,659c-0.1,0.8-0.6,1.1-1.4,1.1c-1,0-1.7-0.8-1.7-1.7c0-1,0.6-1.7,1.7-1.7c0.6,0,1.3,0.4,1.4,1.1h-0.5
			c-0.1-0.4-0.4-0.8-0.9-0.8c-0.8,0-1.1,0.5-1.1,1.3c0,0.6,0.4,1.3,1.1,1.3c0.5,0,0.8-0.3,0.9-0.8L-450.8,659L-450.8,659z"/>
	</g>
</g>
</svg>
